# Blender 3.3.0
# www.blender.org
mtllib Jem_floor+UV_2.mtl
o floor
v -20.633833 0.065229 20.633833
v -20.633833 -0.065229 20.633833
v -20.633833 0.065229 -20.633833
v -20.633833 -0.065229 -20.633833
v 20.633833 0.065229 20.633833
v 20.633833 -0.065229 20.633833
v 20.633833 0.065229 -20.633833
v 20.633833 -0.065229 -20.633833
v -20.633839 0.058370 20.633839
v -20.633839 -0.058370 20.633839
v -20.633839 -0.058370 -20.633839
v -20.633839 0.058370 -20.633839
v 20.633839 -0.058370 -20.633839
v 20.633839 0.058370 -20.633839
v 20.633839 -0.058370 20.633839
v 20.633839 0.058370 20.633839
vn 1.0000 0.0008 -0.0000
vn -0.0000 0.0009 1.0000
vn -1.0000 0.0008 -0.0000
vn -0.0000 0.0009 -1.0000
vn -0.0000 -1.0000 -0.0000
vn -0.0000 1.0000 -0.0000
vn -0.0000 -0.0009 -1.0000
vn -0.0000 -0.0000 -1.0000
vn -1.0000 -0.0008 -0.0000
vn -1.0000 -0.0000 -0.0000
vn -0.0000 -0.0009 1.0000
vn -0.0000 -0.0000 1.0000
vn 1.0000 -0.0008 -0.0000
vn 1.0000 -0.0000 -0.0000
vt 0.000039 1.000001
vt 0.683055 0.019151
vt 0.336701 0.007048
vt 0.336701 0.019246
vt 0.683055 0.006952
vt 0.995747 0.031498
vt 0.000009 0.000002
vt 0.352726 0.032032
vt 0.003768 0.007048
vt 0.003768 0.019246
vt 0.352726 0.019834
vt 0.995747 0.018058
vt 1.000000 0.999998
vt 0.350122 0.019151
vt 0.003768 0.019738
vt 0.003768 0.031937
vt 0.350122 0.006952
vt 0.693587 0.031498
vt 0.999974 0.000025
vt 0.336701 0.019738
vt 0.685660 0.032032
vt 0.685660 0.019834
vt 0.336701 0.031937
vt 0.693587 0.018058
vt 0.683056 0.018510
vt 0.336701 0.007689
vt 0.683056 0.007594
vt 0.336701 0.018605
vt 0.352726 0.020475
vt 0.003768 0.018605
vt 0.352726 0.031391
vt 0.003768 0.007689
vt 0.336701 0.031296
vt 0.685660 0.020475
vt 0.336701 0.020380
vt 0.685660 0.031391
vt 0.350122 0.007594
vt 0.003768 0.031296
vt 0.350122 0.018510
vt 0.003768 0.020380
s 0
usemtl 
f 10/28/1 2/4/1 4/10/1 11/30/1
f 11/29/2 4/11/2 8/22/2 13/34/2
f 13/33/3 8/23/3 6/16/3 15/38/3
f 15/37/4 6/17/4 2/5/4 10/27/4
f 3/7/5 7/19/5 5/13/5 1/1/5
f 8/24/6 4/12/6 2/6/6 6/18/6
f 5/14/7 16/39/7 9/25/7 1/2/7
f 16/39/8 15/37/8 10/27/8 9/25/8
f 7/20/9 14/35/9 16/40/9 5/15/9
f 14/35/10 13/33/10 15/38/10 16/40/10
f 3/8/11 12/31/11 14/36/11 7/21/11
f 12/31/12 11/29/12 13/34/12 14/36/12
f 1/3/13 9/26/13 12/32/13 3/9/13
f 9/26/14 10/28/14 11/30/14 12/32/14
