# Blender 3.3.0
# www.blender.org
mtllib Jem_tomb+UV.mtl
o tomb
v -0.933924 0.002156 0.844254
v -0.907664 6.798753 0.826274
v -0.907664 6.798753 -0.826274
v 0.907321 6.798753 -0.826274
v 0.907321 6.798753 0.826274
v -0.929219 0.002156 0.844254
v 0.928875 0.002156 0.844254
v 0.933580 0.002156 0.844254
v 0.933580 0.002156 0.848529
v 0.933580 0.002156 -0.844254
v 0.933580 0.002156 -0.848529
v -0.933924 0.002156 0.848529
v -0.933924 0.002156 -0.844254
v 0.913212 3.392704 0.831638
v 0.866578 3.437350 0.789177
v 0.899553 3.424273 0.819201
v 0.866578 3.089597 0.789177
v 0.913212 3.134242 0.831638
v 0.899553 3.102673 0.819201
v -0.913556 3.392704 -0.831638
v -0.866922 3.437350 -0.789177
v -0.899897 3.424273 -0.819201
v -0.866922 3.089597 -0.789177
v -0.913556 3.134242 -0.831638
v -0.899897 3.102673 -0.819201
v 0.913212 3.134242 -0.831638
v 0.866578 3.089597 -0.789177
v 0.899553 3.102673 -0.819201
v -0.913556 3.134242 0.831638
v -0.866922 3.089597 0.789177
v -0.899897 3.102673 0.819201
v 0.866578 3.437350 -0.789177
v 0.913212 3.392704 -0.831638
v 0.899553 3.424273 -0.819201
v -0.866922 3.437350 0.789177
v -0.913556 3.392704 0.831638
v -0.899897 3.424273 0.819201
v -0.933924 0.002156 -0.848529
v -0.898697 0.994825 0.818109
v -0.944685 0.966372 0.859980
v -0.898697 0.994825 -0.818109
v -0.929219 0.002156 -0.844254
v -0.944685 0.966372 -0.859980
v 0.898354 0.994825 -0.818109
v 0.928875 0.002156 -0.844254
v 0.944341 0.966372 -0.859980
v 0.898354 0.994825 0.818109
v -0.000172 0.002156 0.000000
v 0.944341 0.966372 0.859980
v -0.839478 6.468328 0.764189
v -0.907664 6.533607 0.826274
v -0.887693 6.487449 0.808089
v -0.907664 6.533607 -0.826274
v -0.839478 6.468328 -0.764189
v -0.887693 6.487449 -0.808089
v 0.907321 6.533607 -0.826274
v 0.839134 6.468328 -0.764189
v 0.887349 6.487449 -0.808089
v 0.907321 6.533607 0.826274
v 0.839134 6.468328 0.764189
v 0.887349 6.487449 0.808089
v -0.933924 0.002156 0.910502
v -1.000172 0.002156 0.844254
v -0.980768 0.002156 0.891098
v -0.685425 0.994825 0.684253
v -0.751684 0.994825 0.617995
v -0.800669 0.994825 0.728854
v -0.732277 0.994825 0.664847
v -1.000172 0.002156 -0.844254
v -0.933924 0.002156 -0.910502
v -0.980768 0.002156 -0.891098
v -0.751684 0.994825 -0.617995
v -0.685425 0.994825 -0.684253
v -0.800669 0.994825 -0.728854
v -0.732277 0.994825 -0.664847
v 0.999828 0.002156 0.844254
v 0.933580 0.002156 0.910502
v 0.980424 0.002156 0.891098
v 0.751340 0.994825 0.617995
v 0.685081 0.994825 0.684253
v 0.800325 0.994825 0.728854
v 0.731933 0.994825 0.664847
v 0.933580 0.002156 -0.910502
v 0.999828 0.002156 -0.844254
v 0.980424 0.002156 -0.891098
v 0.685081 0.994825 -0.684253
v 0.751340 0.994825 -0.617995
v 0.800325 0.994825 -0.728854
v 0.731933 0.994825 -0.664847
v -0.751684 6.468328 0.618000
v -0.685430 6.468328 0.684253
v -0.800669 6.468328 0.728854
v -0.732279 6.468328 0.664848
v -0.685430 6.468328 -0.684253
v -0.751684 6.468328 -0.618000
v -0.800669 6.468328 -0.728854
v -0.732279 6.468328 -0.664848
v 0.751340 6.468328 -0.618000
v 0.685086 6.468328 -0.684253
v 0.800325 6.468328 -0.728854
v 0.731935 6.468328 -0.664848
v 0.685086 6.468328 0.684253
v 0.751340 6.468328 0.618000
v 0.800325 6.468328 0.728854
v 0.731935 6.468328 0.664848
v 0.790105 3.089597 -0.653291
v 0.723845 3.089597 -0.719548
v 0.839090 3.089597 -0.764150
v 0.770698 3.089597 -0.700142
v 0.723845 3.089597 0.719548
v 0.790105 3.089597 0.653291
v 0.839090 3.089597 0.764150
v 0.770698 3.089597 0.700142
v -0.790449 3.089597 0.653291
v -0.724189 3.089597 0.719548
v -0.839434 3.089597 0.764150
v -0.771042 3.089597 0.700142
v -0.724189 3.089597 -0.719548
v -0.790449 3.089597 -0.653291
v -0.839434 3.089597 -0.764150
v -0.771042 3.089597 -0.700142
v 0.723851 3.437350 -0.719548
v 0.790105 3.437350 -0.653296
v 0.839090 3.437350 -0.764150
v 0.770700 3.437350 -0.700143
v -0.724195 3.437350 0.719548
v -0.790449 3.437350 0.653296
v -0.839434 3.437350 0.764150
v -0.771044 3.437350 0.700143
v 0.790105 3.437350 0.653296
v 0.723851 3.437350 0.719548
v 0.839090 3.437350 0.764150
v 0.770700 3.437350 0.700143
v -0.790449 3.437350 -0.653296
v -0.724195 3.437350 -0.719548
v -0.839434 3.437350 -0.764150
v -0.771044 3.437350 -0.700143
v -1.000172 0.897679 0.844254
v -0.933924 0.897679 0.910502
v -0.980768 0.897679 0.891098
v -0.933924 0.897679 -0.910502
v -1.000172 0.897679 -0.844254
v -0.980768 0.897679 -0.891098
v 0.999828 0.897679 -0.844254
v 0.933580 0.897679 -0.910502
v 0.980424 0.897679 -0.891098
v 0.933580 0.897679 0.910502
v 0.999828 0.897679 0.844254
v 0.980424 0.897679 0.891098
vn -0.0000 1.0000 -0.0000
vn 1.0000 -0.0000 -0.0000
vn -0.0000 -1.0000 -0.0000
vn -0.9998 -0.0185 -0.0000
vn -0.0000 -0.0000 1.0000
vn -0.0000 -0.0168 -0.9999
vn 0.9998 -0.0185 -0.0000
vn -0.0000 -0.0168 0.9999
vn -0.0000 0.0116 -0.9999
vn -0.0000 -0.0000 -1.0000
vn 0.9999 0.0128 -0.0000
vn -0.9999 0.0128 -0.0000
vn -0.0000 0.0116 0.9999
vn -1.0000 -0.0000 -0.0000
vn -0.0000 0.5925 0.8056
vn -0.0000 -0.3665 -0.9304
vn -0.0000 -0.9168 -0.3993
vn -0.0000 -0.3665 0.9304
vn -0.0000 -0.9168 0.3993
vn -0.9178 -0.3971 -0.0000
vn -0.3686 -0.9296 -0.0000
vn 0.9178 -0.3971 -0.0000
vn 0.3686 -0.9296 -0.0000
vn -0.0000 0.9168 -0.3993
vn -0.0000 0.3665 -0.9304
vn -0.0000 0.9168 0.3993
vn -0.0000 0.3665 0.9304
vn -0.3686 0.9296 -0.0000
vn -0.9178 0.3971 -0.0000
vn 0.3686 0.9296 -0.0000
vn 0.9178 0.3971 -0.0000
vn -0.5262 0.8504 -0.0000
vn -0.0000 0.5925 -0.8056
vn -0.0000 0.8271 -0.5621
vn 0.7779 0.6284 -0.0000
vn 0.5262 0.8504 -0.0000
vn -0.0000 0.8271 0.5621
vn -0.7779 0.6284 -0.0000
vn -0.7716 0.5501 0.3196
vn -0.3253 0.5267 0.7854
vn -0.3253 0.5267 -0.7854
vn -0.7716 0.5501 -0.3196
vn 0.7716 0.5501 -0.3196
vn 0.3253 0.5267 -0.7854
vn 0.3253 0.5267 0.7854
vn 0.7716 0.5501 0.3196
vn 0.3826 0.0157 -0.9238
vn 0.9238 0.0163 -0.3826
vn 0.3826 -0.0226 0.9236
vn 0.9236 -0.0235 0.3826
vn -0.3826 0.0157 0.9238
vn -0.9238 0.0163 0.3826
vn -0.3826 -0.0226 -0.9236
vn -0.9236 -0.0235 -0.3826
vn 0.3826 -0.0226 -0.9236
vn 0.9236 -0.0235 -0.3826
vn -0.3826 -0.0226 0.9236
vn -0.9236 -0.0235 0.3826
vn 0.3826 0.0157 0.9238
vn 0.9238 0.0163 0.3826
vn -0.3826 0.0157 -0.9238
vn -0.9238 0.0163 -0.3826
vn 0.9239 -0.0000 0.3827
vn 0.3827 -0.0000 0.9239
vn -0.9239 -0.0000 0.3827
vn -0.3827 -0.0000 0.9239
vn -0.3827 -0.0000 -0.9239
vn -0.9239 -0.0000 -0.3827
vn 0.9239 -0.0000 -0.3827
vn 0.3827 -0.0000 -0.9239
vt 0.190273 0.968329
vt 0.609641 0.778908
vt 0.544423 0.332143
vt 0.439990 0.778908
vt 0.571176 0.167999
vt 0.668777 0.658378
vt 0.666028 0.000265
vt 0.439990 0.965235
vt 0.580069 0.510409
vt 0.609641 0.965235
vt 0.190266 0.967727
vt 0.190269 0.772085
vt 0.190277 0.771483
vt 0.190781 0.771494
vt 0.023309 0.771321
vt 0.022806 0.771330
vt 0.190776 0.968321
vt 0.023305 0.968167
vt 0.865410 0.783844
vt 0.973201 0.722202
vt 0.857770 0.791281
vt 0.861738 0.787748
vt 0.974469 0.168342
vt 0.982229 0.175651
vt 0.999735 0.722202
vt 0.978265 0.172036
vt 0.973201 0.363913
vt 0.673434 0.959254
vt 0.681039 0.951824
vt 0.677088 0.955356
vt 0.797918 0.007573
vt 0.999735 0.363913
vt 0.790186 0.000265
vt 0.794137 0.003879
vt 0.999735 0.176377
vt 0.982229 0.000475
vt 0.999735 0.892955
vt 0.974596 0.007884
vt 0.978560 0.004364
vt 0.999735 0.534665
vt 0.789375 0.175847
vt 0.797062 0.168395
vt 0.793071 0.171935
vt 0.857660 0.951697
vt 0.973201 0.176377
vt 0.865410 0.958978
vt 0.973201 0.892955
vt 0.861451 0.955378
vt 0.680260 0.791001
vt 0.973201 0.534665
vt 0.672445 0.783671
vt 0.676438 0.787295
vt 0.022801 0.968157
vt 0.233126 0.963265
vt 0.227589 0.969063
vt 0.399616 0.962832
vt 0.023313 0.967566
vt 0.405026 0.968688
vt 0.399788 0.780900
vt 0.023317 0.771924
vt 0.405293 0.775139
vt 0.233765 0.780701
vt 0.106791 0.869825
vt 0.228361 0.774832
vt 0.794739 0.338189
vt 0.572181 0.331003
vt 0.577335 0.331104
vt 0.789375 0.343169
vt 0.598298 0.177172
vt 0.795263 0.181315
vt 0.603036 0.178835
vt 0.789896 0.176377
vt 0.693001 0.015965
vt 0.692518 0.644145
vt 0.967333 0.181506
vt 0.696380 0.020357
vt 0.696380 0.639337
vt 0.972671 0.176547
vt 0.604900 0.500340
vt 0.967290 0.338094
vt 0.609847 0.498346
vt 0.972671 0.343030
vt 0.788845 0.391352
vt 0.197749 0.968514
vt 0.788845 0.380942
vt 0.190319 0.975418
vt 0.788845 0.386147
vt 0.195563 0.973501
vt 0.246940 0.941229
vt 0.533758 0.308844
vt 0.253974 0.948126
vt 0.533747 0.298432
vt 0.242307 0.953219
vt 0.248976 0.946040
vt 0.533702 0.303638
vt 0.788845 0.207599
vt 0.023214 0.975255
vt 0.788845 0.197189
vt 0.015834 0.968318
vt 0.788845 0.202394
vt 0.017993 0.973310
vt 0.379153 0.947908
vt 0.535882 0.171563
vt 0.385968 0.941094
vt 0.536243 0.161157
vt 0.390543 0.952903
vt 0.383975 0.945907
vt 0.536013 0.166358
vt 0.788845 0.593481
vt 0.190369 0.764396
vt 0.788845 0.583071
vt 0.197749 0.771333
vt 0.788845 0.588276
vt 0.195589 0.766340
vt 0.254204 0.795677
vt 0.536738 0.459921
vt 0.247374 0.802473
vt 0.536363 0.449516
vt 0.242824 0.790656
vt 0.249377 0.797666
vt 0.536501 0.454720
vt 0.788845 0.005470
vt 0.015834 0.771137
vt 0.788845 0.766824
vt 0.023263 0.764233
vt 0.788845 0.772029
vt 0.788845 0.000265
vt 0.018019 0.766149
vt 0.386191 0.802586
vt 0.543580 0.020652
vt 0.379414 0.795811
vt 0.543569 0.586624
vt 0.390737 0.790826
vt 0.384208 0.797801
vt 0.543893 0.015455
vt 0.543893 0.591820
vt 0.803882 0.322822
vt 0.311033 0.309629
vt 0.810810 0.329858
vt 0.311043 0.298783
vt 0.798769 0.334511
vt 0.805972 0.327820
vt 0.310999 0.304206
vt 0.811096 0.189548
vt 0.312767 0.447159
vt 0.804264 0.196367
vt 0.312508 0.436316
vt 0.799243 0.184948
vt 0.806269 0.191542
vt 0.312599 0.441738
vt 0.958325 0.196525
vt 0.317824 0.020861
vt 0.951509 0.189719
vt 0.317834 0.587551
vt 0.963351 0.185135
vt 0.956329 0.191713
vt 0.318055 0.592970
vt 0.318055 0.015443
vt 0.951436 0.329880
vt 0.312839 0.158311
vt 0.958254 0.323046
vt 0.313110 0.147468
vt 0.963300 0.334463
vt 0.956258 0.327877
vt 0.312936 0.152889
vt 0.966793 0.021751
vt 0.328989 0.601822
vt 0.960026 0.014986
vt 0.329000 0.005462
vt 0.971793 0.010437
vt 0.964814 0.016971
vt 0.329313 0.000265
vt 0.329313 0.607018
vt 0.959886 0.161223
vt 0.321394 0.457478
vt 0.966657 0.154445
vt 0.321768 0.467883
vt 0.971662 0.165783
vt 0.964673 0.159238
vt 0.321531 0.462682
vt 0.805050 0.153991
vt 0.318629 0.298436
vt 0.812010 0.161126
vt 0.318641 0.308848
vt 0.799920 0.165786
vt 0.807194 0.159074
vt 0.318585 0.303642
vt 0.812469 0.014711
vt 0.321248 0.153915
vt 0.805680 0.021467
vt 0.320886 0.164321
vt 0.800712 0.010131
vt 0.807676 0.016683
vt 0.321017 0.159116
vt 0.843093 0.944604
vt 0.007471 0.602728
vt 0.849853 0.937830
vt 0.007462 0.005684
vt 0.854857 0.949146
vt 0.847874 0.942618
vt 0.007692 0.608147
vt 0.007692 0.000265
vt 0.695214 0.798269
vt 0.000309 0.298783
vt 0.688253 0.805415
vt 0.000299 0.309629
vt 0.683120 0.793610
vt 0.690400 0.800325
vt 0.000265 0.304206
vt 0.849970 0.805159
vt 0.002478 0.139522
vt 0.843197 0.798405
vt 0.002207 0.150365
vt 0.854964 0.793840
vt 0.847986 0.800383
vt 0.002304 0.144942
vt 0.688778 0.937938
vt 0.001859 0.443551
vt 0.695567 0.944678
vt 0.002118 0.454394
vt 0.683828 0.949265
vt 0.690777 0.942713
vt 0.001949 0.448974
vt 0.226973 0.978871
vt 0.696910 0.380942
vt 0.218502 0.970174
vt 0.696910 0.391352
vt 0.221483 0.975669
vt 0.696910 0.386147
vt 0.414348 0.969760
vt 0.696910 0.197189
vt 0.405705 0.978198
vt 0.696910 0.207599
vt 0.411158 0.975228
vt 0.696910 0.202394
vt 0.405921 0.765364
vt 0.696910 0.766824
vt 0.414348 0.774031
vt 0.696910 0.005470
vt 0.411383 0.768559
vt 0.696910 0.772029
vt 0.696910 0.000265
vt 0.219029 0.773733
vt 0.696910 0.583071
vt 0.227713 0.765326
vt 0.696910 0.593481
vt 0.222247 0.768272
vt 0.696910 0.588276
s 0
usemtl Material.002
f 67/93/1 66/91/1 72/102/1 74/106/1 41/56/1 39/54/1
f 84/124/2 144/237/2 148/246/2 76/109/2
f 96/148/3 95/146/3 90/137/3 92/141/3 50/65/3 54/70/3
f 72/103/4 66/92/4 114/182/4 119/191/4
f 77/111/5 147/244/5 139/227/5 62/83/5
f 108/170/3 107/168/3 118/188/3 120/192/3 23/31/3 27/38/3
f 86/130/6 73/105/6 118/189/6 107/169/6
f 79/116/7 87/132/7 106/167/7 111/177/7
f 65/90/8 80/118/8 110/175/8 115/184/8
f 104/163/3 103/161/3 98/151/3 100/155/3 57/75/3 60/80/3
f 92/141/3 91/139/3 102/159/3 104/163/3 60/80/3 50/65/3
f 122/196/9 135/220/9 94/145/9 99/154/9
f 100/155/3 99/153/3 94/144/3 96/148/3 54/70/3 57/75/3
f 59/79/2 56/74/2 4/6/2 5/9/2
f 56/73/10 53/69/10 3/5/10 4/7/10
f 51/66/5 59/79/5 5/9/5 2/3/5
f 4/8/1 3/4/1 2/2/1 5/10/1
f 130/211/11 123/198/11 98/152/11 103/162/11
f 134/218/12 127/206/12 90/138/12 95/147/12
f 126/204/13 131/213/13 102/160/13 91/140/13
f 74/106/1 73/104/1 86/129/1 88/133/1 44/59/1 41/56/1
f 70/98/10 141/231/10 145/239/10 83/122/10
f 81/119/1 80/117/1 65/89/1 67/93/1 39/54/1 47/62/1
f 88/133/1 87/131/1 79/115/1 81/119/1 47/62/1 44/59/1
f 24/32/14 29/40/14 36/50/14 20/27/14
f 124/199/1 123/197/1 130/210/1 132/214/1 15/21/1 32/44/1
f 49/64/15 40/55/15 139/226/15 147/243/15
f 120/192/3 119/190/3 114/181/3 116/185/3 30/42/3 23/31/3
f 112/178/3 111/176/3 106/166/3 108/170/3 27/38/3 17/23/3
f 132/214/1 131/212/1 126/203/1 128/207/1 35/49/1 15/21/1
f 26/35/10 24/32/10 20/27/10 33/45/10
f 29/40/5 18/25/5 14/20/5 36/50/5
f 128/207/1 127/205/1 134/217/1 136/221/1 21/29/1 35/49/1
f 136/221/1 135/219/1 122/195/1 124/199/1 32/44/1 21/29/1
f 116/185/3 115/183/3 110/174/3 112/178/3 17/23/3 30/42/3
f 24/33/16 26/36/16 28/39/16 25/34/16
f 25/34/17 28/39/17 27/38/17 23/31/17
f 18/24/18 29/41/18 31/43/18 19/26/18
f 19/26/19 31/43/19 30/42/19 17/23/19
f 29/41/20 24/33/20 25/34/20 31/43/20
f 31/43/21 25/34/21 23/31/21 30/42/21
f 26/36/22 18/24/22 19/26/22 28/39/22
f 28/39/23 19/26/23 17/23/23 27/38/23
f 21/29/24 32/44/24 34/48/24 22/30/24
f 22/30/25 34/48/25 33/46/25 20/28/25
f 15/21/26 35/49/26 37/52/26 16/22/26
f 16/22/27 37/52/27 36/51/27 14/19/27
f 35/49/28 21/29/28 22/30/28 37/52/28
f 37/52/29 22/30/29 20/28/29 36/51/29
f 32/44/30 15/21/30 16/22/30 34/48/30
f 34/48/31 16/22/31 14/19/31 33/46/31
f 18/25/2 26/37/2 33/47/2 14/20/2
f 39/54/32 41/56/32 43/58/32 40/55/32
f 43/58/33 46/61/33 145/238/33 141/230/33
f 41/56/34 44/59/34 46/61/34 43/58/34
f 46/61/35 49/64/35 148/245/35 144/236/35
f 44/59/36 47/62/36 49/64/36 46/61/36
f 77/112/3 9/14/3 78/114/3
f 47/62/37 39/54/37 40/55/37 49/64/37
f 40/55/38 43/58/38 142/232/38 138/224/38
f 63/85/14 138/225/14 142/233/14 69/96/14
f 51/66/20 53/69/20 55/71/20 52/67/20
f 52/68/21 55/72/21 54/70/21 50/65/21
f 53/69/16 56/73/16 58/76/16 55/71/16
f 55/72/17 58/78/17 57/75/17 54/70/17
f 56/74/22 59/79/22 61/81/22 58/77/22
f 58/78/23 61/82/23 60/80/23 57/75/23
f 59/79/18 51/66/18 52/67/18 61/81/18
f 61/82/19 52/68/19 50/65/19 60/80/19
f 53/69/14 51/66/14 2/3/14 3/5/14
f 65/89/1 68/94/1 67/93/1
f 68/94/1 66/91/1 67/93/1
f 72/102/1 75/107/1 74/106/1
f 75/107/1 73/104/1 74/106/1
f 79/115/1 82/120/1 81/119/1
f 82/120/1 80/117/1 81/119/1
f 86/129/1 89/134/1 88/133/1
f 89/134/1 87/131/1 88/133/1
f 90/137/3 93/142/3 92/141/3
f 93/142/3 91/139/3 92/141/3
f 94/144/3 97/149/3 96/148/3
f 97/149/3 95/146/3 96/148/3
f 98/151/3 101/156/3 100/155/3
f 101/156/3 99/153/3 100/155/3
f 102/159/3 105/164/3 104/163/3
f 105/164/3 103/161/3 104/163/3
f 106/166/3 109/171/3 108/170/3
f 109/171/3 107/168/3 108/170/3
f 110/174/3 113/179/3 112/178/3
f 113/179/3 111/176/3 112/178/3
f 114/181/3 117/186/3 116/185/3
f 117/186/3 115/183/3 116/185/3
f 118/188/3 121/193/3 120/192/3
f 121/193/3 119/190/3 120/192/3
f 122/195/1 125/200/1 124/199/1
f 125/200/1 123/197/1 124/199/1
f 126/203/1 129/208/1 128/207/1
f 129/208/1 127/205/1 128/207/1
f 130/210/1 133/215/1 132/214/1
f 133/215/1 131/212/1 132/214/1
f 134/217/1 137/222/1 136/221/1
f 137/222/1 135/219/1 136/221/1
f 138/224/39 140/228/39 40/55/39
f 140/228/40 139/226/40 40/55/40
f 141/230/41 143/234/41 43/58/41
f 143/234/42 142/232/42 43/58/42
f 144/236/43 146/240/43 46/61/43
f 146/240/44 145/238/44 46/61/44
f 147/243/45 149/247/45 49/64/45
f 149/247/46 148/245/46 49/64/46
f 122/196/47 99/154/47 101/157/47 125/201/47
f 125/202/48 101/158/48 98/152/48 123/198/48
f 110/175/49 80/118/49 82/121/49 113/180/49
f 113/180/50 82/121/50 79/116/50 111/177/50
f 126/204/51 91/140/51 93/143/51 129/209/51
f 129/209/52 93/143/52 90/138/52 127/206/52
f 118/189/53 73/105/53 75/108/53 121/194/53
f 121/194/54 75/108/54 72/103/54 119/191/54
f 86/130/55 107/169/55 109/172/55 89/135/55
f 89/136/56 109/173/56 106/167/56 87/132/56
f 65/90/57 115/184/57 117/187/57 68/95/57
f 68/95/58 117/187/58 114/182/58 66/92/58
f 102/160/59 131/213/59 133/216/59 105/165/59
f 105/165/60 133/216/60 130/211/60 103/162/60
f 94/145/61 135/220/61 137/223/61 97/150/61
f 97/150/62 137/223/62 134/218/62 95/147/62
f 76/109/63 148/246/63 149/248/63 78/113/63
f 78/113/64 149/248/64 147/244/64 77/111/64
f 138/225/65 63/85/65 64/87/65 140/229/65
f 140/229/66 64/87/66 62/83/66 139/227/66
f 141/231/67 70/98/67 71/100/67 143/235/67
f 143/235/68 71/100/68 69/96/68 142/233/68
f 144/237/69 84/124/69 85/126/69 146/241/69
f 146/242/70 85/127/70 83/122/70 145/239/70
f 11/16/3 85/128/3 84/125/3 10/15/3
f 13/18/3 38/53/3 42/57/3
f 42/57/3 45/60/3 48/63/3
f 8/13/3 10/15/3 84/125/3 76/110/3
f 83/123/3 85/128/3 11/16/3
f 1/1/3 13/18/3 42/57/3 48/63/3 6/11/3
f 71/101/3 70/99/3 38/53/3
f 69/97/3 71/101/3 38/53/3 13/18/3
f 63/86/3 69/97/3 13/18/3 1/1/3
f 64/88/3 12/17/3 62/84/3
f 70/99/3 83/123/3 11/16/3 45/60/3 42/57/3 38/53/3
f 45/60/3 11/16/3 10/15/3
f 7/12/3 8/13/3 9/14/3
f 6/11/3 48/63/3 7/12/3
f 9/14/3 8/13/3 76/110/3 78/114/3
f 48/63/3 45/60/3 10/15/3 8/13/3 7/12/3
f 12/17/3 6/11/3 7/12/3 9/14/3 77/112/3 62/84/3
f 64/88/3 63/86/3 1/1/3 12/17/3
f 12/17/3 1/1/3 6/11/3
